<svg width="85" height="27" viewBox="0 0 85 27" fill="none" xmlns="http://www.w3.org/2000/svg">
<path fill-rule="evenodd" clip-rule="evenodd" d="M68.9261 0.636353H64.6903V8.93761C65.2564 10.1137 65.5852 11.5952 65.5852 13.3835C65.5852 15.1526 65.26 16.6393 64.6903 17.8272V21H68.9261V0.636353ZM77.6506 21.2983C74.4558 21.2983 72.1052 19.9036 70.9261 17.4911V9.42885C72.1015 7.00352 74.4262 5.52844 77.4815 5.52844C81.5185 5.52844 84.6605 8.09378 84.6605 13.2841V14.4475H74.2599V14.4574C74.2599 16.7344 75.6023 18.1364 77.7202 18.1364C79.1321 18.1364 80.2258 17.5299 80.6534 16.3665L84.571 16.625C83.9744 19.4588 81.429 21.2983 77.6506 21.2983ZM74.2599 11.8225C74.3494 10.0824 75.6719 8.69037 77.5511 8.69037C79.3906 8.69037 80.6633 10.0029 80.6733 11.8225H74.2599ZM48.6903 17.8272C49.26 16.6393 49.5852 15.1526 49.5852 13.3836C49.5852 11.5952 49.2564 10.1138 48.6903 8.93762V5.72731H52.8665V8.29265H53.0554C53.6222 7.04975 54.8452 5.52844 57.4006 5.52844C60.7514 5.52844 63.5852 8.13356 63.5852 13.3836C63.5852 18.4944 60.8707 21.2486 57.3906 21.2486C54.9247 21.2486 53.642 19.8267 53.0554 18.554H52.9261V26.7273H48.6903V17.8272ZM56.0483 8.89918C53.9901 8.89918 52.8366 10.6392 52.8366 13.3637C52.8366 16.0881 54.0099 17.8779 56.0483 17.8779C58.1264 17.8779 59.2599 16.0284 59.2599 13.3637C59.2599 10.7188 58.1463 8.89918 56.0483 8.89918ZM36.9261 26.7273H32.6903V5.72727H36.8665V8.29261H37.0554C37.6222 7.04972 38.8452 5.52841 41.4006 5.52841C44.7514 5.52841 47.5852 8.13352 47.5852 13.3835C47.5852 18.4943 44.8707 21.2486 41.3906 21.2486C38.9247 21.2486 37.642 19.8267 37.0554 18.554H36.9261V26.7273ZM40.0483 8.89915C37.9901 8.89915 36.8366 10.6392 36.8366 13.3636C36.8366 16.0881 38.0099 17.8778 40.0483 17.8778C42.1264 17.8778 43.2599 16.0284 43.2599 13.3636C43.2599 10.7188 42.1463 8.89915 40.0483 8.89915ZM16.9111 17.3206C17.3432 16.2254 17.5852 14.9095 17.5852 13.3835C17.5852 11.5952 17.2564 10.1137 16.6903 8.93761V5.72729H20.9261V14.696C20.9361 16.4958 21.9702 17.6193 23.571 17.6193C25.0923 17.6193 26.4943 16.5455 26.4844 14.4972V5.72729H30.7202V21H26.6534V18.2259H26.4943C25.8082 20.0156 24.1577 21.1989 21.8608 21.1989C19.3688 21.1989 17.5244 19.7664 16.9111 17.3206ZM4.92614 26.7273H0.690341V5.72727H4.86648V8.29261H5.0554C5.62216 7.04972 6.84517 5.52841 9.40057 5.52841C12.7514 5.52841 15.5852 8.13352 15.5852 13.3835C15.5852 18.4943 12.8707 21.2486 9.39062 21.2486C6.92472 21.2486 5.64205 19.8267 5.0554 18.554H4.92614V26.7273ZM8.0483 8.89915C5.99006 8.89915 4.83665 10.6392 4.83665 13.3636C4.83665 16.0881 6.00994 17.8778 8.0483 17.8778C10.1264 17.8778 11.2599 16.0284 11.2599 13.3636C11.2599 10.7188 10.1463 8.89915 8.0483 8.89915Z" fill="#45166A"/>
</svg>
