<svg id="visual" viewBox="0 0 900 600" width="900" height="600" xmlns="http://www.w3.org/2000/svg" xmlns:xlink="http://www.w3.org/1999/xlink" version="1.1"><g transform="translate(922.400644925481 -95.3279617681604)"><path d="M274.9 -399.2C387.5 -411.2 531.5 -400.6 570.2 -330.3C609 -260 542.5 -130 494 -28C445.5 74 415 148 410.7 277.9C406.3 407.8 428.2 593.6 364.1 594.1C300 594.6 150 409.8 33.6 351.6C-82.8 293.5 -165.7 361.9 -289.4 395.9C-413.1 429.8 -577.6 429.1 -616.7 357.4C-655.8 285.7 -569.4 142.8 -535.8 19.4C-502.1 -104 -521.3 -208 -461.3 -243.7C-401.4 -279.3 -262.5 -246.6 -172.4 -247.6C-82.3 -248.6 -41.2 -283.3 20 -317.9C81.2 -352.6 162.3 -387.2 274.9 -399.2" fill="#b70070"></path></g></svg>