<svg xmlns="http://www.w3.org/2000/svg" version="1.1" xmlns:xlink="http://www.w3.org/1999/xlink" xmlns:svgjs="http://svgjs.com/svgjs" width="1440" height="560" preserveAspectRatio="none" viewBox="0 0 1440 560"><g mask="url(&quot;#SvgjsMask1031&quot;)" fill="none"><path d="M386.71 37.17 a163.86 163.86 0 1 0 327.72 0 a163.86 163.86 0 1 0 -327.72 0z" fill="rgba(67, 6, 67, 0.56)" class="triangle-float1"></path><path d="M364.6 513.61 a164.76 164.76 0 1 0 329.52 0 a164.76 164.76 0 1 0 -329.52 0z" fill="rgba(67, 6, 67, 0.56)" class="triangle-float2"></path><path d="M408.82 526.13 a141.35 141.35 0 1 0 282.7 0 a141.35 141.35 0 1 0 -282.7 0z" fill="rgba(67, 6, 67, 0.56)" class="triangle-float1"></path><path d="M-90.39 315.91 a144.18 144.18 0 1 0 288.36 0 a144.18 144.18 0 1 0 -288.36 0z" fill="rgba(67, 6, 67, 0.56)" class="triangle-float2"></path></g><defs><mask id="SvgjsMask1031"><rect width="1440" height="560" fill="#ffffff"></rect></mask><style>
            @keyframes float1 {
                0%{transform: translate(0, 0)}
                50%{transform: translate(-10px, 0)}
                100%{transform: translate(0, 0)}
            }

            .triangle-float1 {
                animation: float1 5s infinite;
            }

            @keyframes float2 {
                0%{transform: translate(0, 0)}
                50%{transform: translate(-5px, -5px)}
                100%{transform: translate(0, 0)}
            }

            .triangle-float2 {
                animation: float2 4s infinite;
            }

            @keyframes float3 {
                0%{transform: translate(0, 0)}
                50%{transform: translate(0, -10px)}
                100%{transform: translate(0, 0)}
            }

            .triangle-float3 {
                animation: float3 6s infinite;
            }
        </style></defs></svg>