<svg id="visual" viewBox="0 0 900 600" width="900" height="600" xmlns="http://www.w3.org/2000/svg" xmlns:xlink="http://www.w3.org/1999/xlink" version="1.1"><g transform="translate(750.3594671339832 -116.82405476544534)"><path d="M368.4 -586.6C445.5 -593.6 454 -430.3 493 -304.2C532 -178 601.5 -89 650.1 28.1C698.8 145.2 726.5 290.3 689.7 420.2C652.9 550.1 551.4 664.8 425.7 738.4C300 811.9 150 844.5 25.3 800.7C-99.5 757 -199 637 -265.3 529.1C-331.5 421.2 -364.5 325.3 -368.1 239.2C-371.7 153 -345.8 76.5 -358.7 -7.4C-371.5 -91.3 -423.1 -182.7 -402.6 -239.5C-382.1 -296.4 -289.5 -318.8 -210.4 -310.6C-131.3 -302.5 -65.7 -263.7 40 -333C145.7 -402.3 291.3 -579.6 368.4 -586.6" fill="#b70070"></path></g></svg>