<svg id="visual" viewBox="0 0 900 600" width="900" height="600" xmlns="http://www.w3.org/2000/svg" xmlns:xlink="http://www.w3.org/1999/xlink" version="1.1"><g transform="translate(921.2239912636136 -36.528842213452094)"><path d="M207.1 -365.6C239.6 -340 217.2 -226.3 323.6 -150.6C429.9 -75 665 -37.5 694.8 17.2C724.7 72 549.4 144 463.1 254.3C376.7 364.5 379.4 513.1 317 532.6C254.7 552.1 127.3 442.5 13.8 418.7C-99.8 394.9 -199.7 456.8 -281.9 448.8C-364.2 440.8 -428.9 362.9 -521.2 276.5C-613.4 190 -733.2 95 -740.3 -4.1C-747.4 -103.2 -641.7 -206.3 -552.3 -297.7C-462.9 -389.1 -389.7 -468.6 -300.3 -461.4C-211 -454.1 -105.5 -360.1 -9.1 -344.3C87.3 -328.6 174.7 -391.2 207.1 -365.6" fill="#b70070"></path></g></svg>