<svg id="visual" viewBox="0 0 900 600" width="900" height="600" xmlns="http://www.w3.org/2000/svg" xmlns:xlink="http://www.w3.org/1999/xlink" version="1.1"><g transform="translate(931.3843456615118 84.8826061117831)"><path d="M414.9 -706.6C544.8 -643.6 662.1 -546.8 628.4 -423.4C594.6 -300 409.8 -150 376.3 -19.3C342.8 111.3 460.7 222.7 470.9 305.4C481.2 388.1 383.8 442.2 287.4 509.7C191 577.2 95.5 658.1 23.1 618.1C-49.3 578.1 -98.7 417.2 -211.8 359.4C-325 301.6 -502 346.8 -603 304.1C-704 261.3 -729 130.7 -651.6 44.7C-574.3 -41.3 -394.5 -82.7 -339.9 -205.8C-285.3 -328.9 -355.9 -533.8 -320.1 -651.1C-284.3 -768.5 -142.2 -798.2 0.2 -798.5C142.5 -798.8 285 -769.6 414.9 -706.6" fill="#b70070"></path></g></svg>