<svg id="visual" viewBox="0 0 900 600" width="900" height="600" xmlns="http://www.w3.org/2000/svg" xmlns:xlink="http://www.w3.org/1999/xlink" version="1.1"><g transform="translate(903.9604449750497 6.01050548236168)"><path d="M292.8 -455.1C390.2 -450.8 487.4 -394.2 498.7 -309.6C510 -225 435.5 -112.5 399.9 -20.6C364.2 71.3 367.4 142.7 346.5 210.6C325.6 278.6 280.6 343.3 218.8 391.8C157 440.3 78.5 472.6 11.1 453.4C-56.3 434.1 -112.5 363.2 -171.2 312.9C-230 262.7 -291.2 233.1 -336.1 184.4C-381 135.7 -409.5 67.8 -445.1 -20.6C-480.8 -109 -523.6 -218 -501.9 -306.9C-480.3 -395.8 -394.1 -464.6 -299.7 -470.6C-205.3 -476.6 -102.7 -419.8 -2.5 -415.5C97.7 -411.2 195.3 -459.3 292.8 -455.1" fill="#b70070"></path></g></svg>