<svg id="visual" viewBox="0 0 900 600" width="900" height="600" xmlns="http://www.w3.org/2000/svg" xmlns:xlink="http://www.w3.org/1999/xlink" version="1.1"><g transform="translate(823.6225490148687 -24.065873354380585)"><path d="M276.3 -440.8C373.3 -422.6 477.6 -379.3 545.3 -301.7C613 -224 644 -112 634.9 -5.3C625.8 101.5 576.6 203 505.3 274.3C433.9 345.6 340.5 386.7 252.6 426.8C164.7 466.9 82.3 505.9 4 499C-74.3 492.1 -148.7 439.2 -245.5 404.2C-342.4 369.3 -461.7 352.4 -480.8 288C-499.9 223.7 -418.7 111.8 -409.8 5.2C-400.8 -101.5 -464.1 -203 -444.4 -266.2C-424.6 -329.4 -321.8 -354.4 -233.9 -377.8C-146 -401.2 -73 -423.1 8.3 -437.5C89.7 -452 179.3 -458.9 276.3 -440.8" fill="#b70070"></path></g></svg>