<svg id="visual" viewBox="0 0 900 600" width="900" height="600" xmlns="http://www.w3.org/2000/svg" xmlns:xlink="http://www.w3.org/1999/xlink" version="1.1"><g transform="translate(891.363155769881 -25.601960700576626)"><path d="M232.4 -366.1C321.2 -351.3 426.9 -329.4 457.7 -267.2C488.4 -205 444.2 -102.5 424.6 -11.3C404.9 79.8 409.9 159.7 397.5 253.6C385.1 347.6 355.3 455.7 286.1 472C217 488.4 108.5 412.9 -2 416.4C-112.5 419.9 -225 502.2 -308.1 494C-391.3 485.7 -445.1 386.9 -450.5 289.4C-455.9 192 -412.9 96 -399.8 7.6C-386.7 -80.8 -403.3 -161.7 -388.9 -243.5C-374.5 -325.3 -329 -408.2 -259 -433.8C-189 -459.4 -94.5 -427.7 -11.3 -408C71.8 -388.4 143.7 -380.8 232.4 -366.1" fill="#b70070"></path></g></svg>