<svg id="visual" viewBox="0 0 900 600" width="900" height="600" xmlns="http://www.w3.org/2000/svg" xmlns:xlink="http://www.w3.org/1999/xlink" version="1.1"><g transform="translate(840.608526349486 -227.06598251929051)"><path d="M234.3 -344.1C329.5 -350.8 450.6 -340.4 453.3 -280.2C456.1 -220 340.5 -110 375.2 20C409.8 150 594.6 300 600.4 374.9C606.1 449.8 432.8 449.6 302.9 522.1C173 594.6 86.5 739.8 -25.8 784.6C-138.2 829.3 -276.3 773.6 -331.5 658C-386.6 542.3 -358.7 366.6 -370 247C-381.2 127.3 -431.6 63.7 -460.3 -16.6C-489.1 -96.8 -496.1 -193.7 -435.4 -227.6C-374.6 -261.5 -246.1 -232.5 -162.2 -232.4C-78.3 -232.3 -39.2 -261.2 15.2 -287.4C69.5 -313.7 139 -337.4 234.3 -344.1" fill="#b70070"></path></g></svg>