<svg id="visual" viewBox="0 0 900 600" width="900" height="600" xmlns="http://www.w3.org/2000/svg" xmlns:xlink="http://www.w3.org/1999/xlink" version="1.1"><g transform="translate(928.0440582214449 181.2914737563712)"><path d="M300.7 -579.2C380.1 -475 428.2 -375 483.4 -279.2C538.5 -183.3 600.8 -91.7 595.6 -3C590.4 85.7 517.8 171.3 433.3 216.5C348.9 261.7 252.7 266.4 178.5 293C104.3 319.7 52.2 368.4 -7.3 381.1C-66.8 393.8 -133.7 370.5 -185.2 330.8C-236.7 291 -272.9 234.8 -365.4 176.9C-457.8 119 -606.4 59.5 -642.8 -21C-679.1 -101.5 -603.3 -203 -496.2 -235.5C-389.1 -268 -250.8 -231.4 -162.9 -330.7C-75 -429.9 -37.5 -665 36.6 -728.3C110.7 -791.7 221.3 -683.4 300.7 -579.2" fill="#b70070"></path></g></svg>