<svg id="visual" viewBox="0 0 900 600" width="900" height="600" xmlns="http://www.w3.org/2000/svg" xmlns:xlink="http://www.w3.org/1999/xlink" version="1.1"><g transform="translate(927.8019283075439 37.77828135948849)"><path d="M211.4 -422.4C260.1 -338 276.2 -253.4 334.9 -182.9C393.5 -112.5 494.8 -56.3 498.6 2.2C502.4 60.7 408.8 121.3 343.4 180.1C278 238.8 240.7 295.6 188.2 359.8C135.7 424 67.8 495.5 -4.8 503.9C-77.5 512.2 -155 457.5 -211.4 395.6C-267.9 333.6 -303.2 264.6 -374.5 197.5C-445.7 130.3 -552.9 65.2 -554.3 -0.8C-555.8 -66.8 -451.5 -133.7 -375.4 -192.4C-299.4 -251.2 -251.4 -301.8 -193.5 -380.9C-135.7 -460 -67.8 -567.5 6.7 -579.2C81.3 -590.9 162.7 -506.7 211.4 -422.4" fill="#b70070"></path></g></svg>