<svg id="visual" viewBox="0 0 900 600" width="900" height="600" xmlns="http://www.w3.org/2000/svg" xmlns:xlink="http://www.w3.org/1999/xlink" version="1.1"><g transform="translate(853.605908967993 91.35198094037952)"><path d="M304.5 -525.3C384.1 -481.5 430.6 -378.5 464.7 -281.1C498.8 -183.7 520.4 -91.8 510.4 -5.8C500.5 80.3 458.9 160.7 395.6 207.4C332.3 254.2 247.1 267.4 177.6 298.7C108 330.1 54 379.5 4.3 372.2C-45.5 364.8 -91 300.6 -127.5 250.2C-164.1 199.8 -191.6 163.2 -248.9 123.8C-306.1 84.4 -393.1 42.2 -414.4 -12.3C-435.8 -66.8 -391.5 -133.7 -366.1 -228.2C-340.7 -322.7 -334.1 -445 -276.2 -501.2C-218.3 -557.5 -109.2 -547.7 1.7 -550.6C112.5 -553.5 225 -569 304.5 -525.3" fill="#b70070"></path></g></svg>