<svg id="visual" viewBox="0 0 900 600" width="900" height="600" xmlns="http://www.w3.org/2000/svg" xmlns:xlink="http://www.w3.org/1999/xlink" version="1.1"><g transform="translate(883.501264983897 -30.6195446839086)"><path d="M295 -509.2C368.1 -468.8 403.1 -360.9 411.8 -264.8C420.5 -168.7 402.7 -84.3 421.9 11.1C441.1 106.5 497.3 213 465.8 269.7C434.4 326.4 315.5 333.4 223.2 383C131 432.6 65.5 524.8 -23.5 565.5C-112.5 606.2 -225 595.4 -307.4 540.1C-389.8 484.9 -442.2 385.2 -442.2 287.8C-442.2 190.3 -389.8 95.2 -377 7.4C-364.1 -80.3 -390.8 -160.7 -363.9 -211.5C-336.9 -262.3 -256.5 -283.6 -186.9 -325.9C-117.3 -368.2 -58.7 -431.6 26.2 -476.9C111 -522.3 222 -549.5 295 -509.2" fill="#b70070"></path></g></svg>