<svg id="visual" viewBox="0 0 900 600" width="900" height="600" xmlns="http://www.w3.org/2000/svg" xmlns:xlink="http://www.w3.org/1999/xlink" version="1.1"><rect x="0" y="0" width="900" height="600" fill="#001220"></rect><path d="M0 356L21.5 367.8C43 379.7 86 403.3 128.8 402.7C171.7 402 214.3 377 257.2 375.8C300 374.7 343 397.3 385.8 400.3C428.7 403.3 471.3 386.7 514.2 375.2C557 363.7 600 357.3 642.8 355C685.7 352.7 728.3 354.3 771.2 361.2C814 368 857 380 878.5 386L900 392L900 601L878.5 601C857 601 814 601 771.2 601C728.3 601 685.7 601 642.8 601C600 601 557 601 514.2 601C471.3 601 428.7 601 385.8 601C343 601 300 601 257.2 601C214.3 601 171.7 601 128.8 601C86 601 43 601 21.5 601L0 601Z" fill="#61083f"></path><path d="M0 422L21.5 419.2C43 416.3 86 410.7 128.8 409.3C171.7 408 214.3 411 257.2 421C300 431 343 448 385.8 449.5C428.7 451 471.3 437 514.2 427C557 417 600 411 642.8 410.8C685.7 410.7 728.3 416.3 771.2 422C814 427.7 857 433.3 878.5 436.2L900 439L900 601L878.5 601C857 601 814 601 771.2 601C728.3 601 685.7 601 642.8 601C600 601 557 601 514.2 601C471.3 601 428.7 601 385.8 601C343 601 300 601 257.2 601C214.3 601 171.7 601 128.8 601C86 601 43 601 21.5 601L0 601Z" fill="#76084b"></path><path d="M0 475L21.5 474.2C43 473.3 86 471.7 128.8 473.8C171.7 476 214.3 482 257.2 484.2C300 486.3 343 484.7 385.8 485.2C428.7 485.7 471.3 488.3 514.2 489.8C557 491.3 600 491.7 642.8 485.8C685.7 480 728.3 468 771.2 461.8C814 455.7 857 455.3 878.5 455.2L900 455L900 601L878.5 601C857 601 814 601 771.2 601C728.3 601 685.7 601 642.8 601C600 601 557 601 514.2 601C471.3 601 428.7 601 385.8 601C343 601 300 601 257.2 601C214.3 601 171.7 601 128.8 601C86 601 43 601 21.5 601L0 601Z" fill="#8b0758"></path><path d="M0 507L21.5 508.7C43 510.3 86 513.7 128.8 515C171.7 516.3 214.3 515.7 257.2 512.2C300 508.7 343 502.3 385.8 497.8C428.7 493.3 471.3 490.7 514.2 495.5C557 500.3 600 512.7 642.8 517.8C685.7 523 728.3 521 771.2 520C814 519 857 519 878.5 519L900 519L900 601L878.5 601C857 601 814 601 771.2 601C728.3 601 685.7 601 642.8 601C600 601 557 601 514.2 601C471.3 601 428.7 601 385.8 601C343 601 300 601 257.2 601C214.3 601 171.7 601 128.8 601C86 601 43 601 21.5 601L0 601Z" fill="#a10464"></path><path d="M0 532L21.5 534C43 536 86 540 128.8 545.2C171.7 550.3 214.3 556.7 257.2 553.8C300 551 343 539 385.8 540C428.7 541 471.3 555 514.2 561.2C557 567.3 600 565.7 642.8 564.5C685.7 563.3 728.3 562.7 771.2 558.7C814 554.7 857 547.3 878.5 543.7L900 540L900 601L878.5 601C857 601 814 601 771.2 601C728.3 601 685.7 601 642.8 601C600 601 557 601 514.2 601C471.3 601 428.7 601 385.8 601C343 601 300 601 257.2 601C214.3 601 171.7 601 128.8 601C86 601 43 601 21.5 601L0 601Z" fill="#b70070"></path></svg>