<svg id="visual" viewBox="0 0 900 600" width="900" height="600" xmlns="http://www.w3.org/2000/svg" xmlns:xlink="http://www.w3.org/1999/xlink" version="1.1"><rect x="0" y="0" width="900" height="600" fill="#001220"></rect><path d="M0 388L21.5 392C43 396 86 404 128.8 404.2C171.7 404.3 214.3 396.7 257.2 399.2C300 401.7 343 414.3 385.8 421C428.7 427.7 471.3 428.3 514.2 425.8C557 423.3 600 417.7 642.8 420.3C685.7 423 728.3 434 771.2 435.3C814 436.7 857 428.3 878.5 424.2L900 420L900 601L878.5 601C857 601 814 601 771.2 601C728.3 601 685.7 601 642.8 601C600 601 557 601 514.2 601C471.3 601 428.7 601 385.8 601C343 601 300 601 257.2 601C214.3 601 171.7 601 128.8 601C86 601 43 601 21.5 601L0 601Z" fill="#61083f"></path><path d="M0 441L21.5 436.2C43 431.3 86 421.7 128.8 416.8C171.7 412 214.3 412 257.2 416C300 420 343 428 385.8 431.7C428.7 435.3 471.3 434.7 514.2 436.2C557 437.7 600 441.3 642.8 439.7C685.7 438 728.3 431 771.2 426.5C814 422 857 420 878.5 419L900 418L900 601L878.5 601C857 601 814 601 771.2 601C728.3 601 685.7 601 642.8 601C600 601 557 601 514.2 601C471.3 601 428.7 601 385.8 601C343 601 300 601 257.2 601C214.3 601 171.7 601 128.8 601C86 601 43 601 21.5 601L0 601Z" fill="#76084b"></path><path d="M0 449L21.5 455.5C43 462 86 475 128.8 482.3C171.7 489.7 214.3 491.3 257.2 491.3C300 491.3 343 489.7 385.8 486.3C428.7 483 471.3 478 514.2 470.2C557 462.3 600 451.7 642.8 455C685.7 458.3 728.3 475.7 771.2 480.7C814 485.7 857 478.3 878.5 474.7L900 471L900 601L878.5 601C857 601 814 601 771.2 601C728.3 601 685.7 601 642.8 601C600 601 557 601 514.2 601C471.3 601 428.7 601 385.8 601C343 601 300 601 257.2 601C214.3 601 171.7 601 128.8 601C86 601 43 601 21.5 601L0 601Z" fill="#8b0758"></path><path d="M0 503L21.5 504.3C43 505.7 86 508.3 128.8 514.5C171.7 520.7 214.3 530.3 257.2 525.7C300 521 343 502 385.8 495.2C428.7 488.3 471.3 493.7 514.2 494.5C557 495.3 600 491.7 642.8 496.3C685.7 501 728.3 514 771.2 518.5C814 523 857 519 878.5 517L900 515L900 601L878.5 601C857 601 814 601 771.2 601C728.3 601 685.7 601 642.8 601C600 601 557 601 514.2 601C471.3 601 428.7 601 385.8 601C343 601 300 601 257.2 601C214.3 601 171.7 601 128.8 601C86 601 43 601 21.5 601L0 601Z" fill="#a10464"></path><path d="M0 564L21.5 561.7C43 559.3 86 554.7 128.8 556.2C171.7 557.7 214.3 565.3 257.2 567.8C300 570.3 343 567.7 385.8 564.5C428.7 561.3 471.3 557.7 514.2 557.2C557 556.7 600 559.3 642.8 559.2C685.7 559 728.3 556 771.2 555.8C814 555.7 857 558.3 878.5 559.7L900 561L900 601L878.5 601C857 601 814 601 771.2 601C728.3 601 685.7 601 642.8 601C600 601 557 601 514.2 601C471.3 601 428.7 601 385.8 601C343 601 300 601 257.2 601C214.3 601 171.7 601 128.8 601C86 601 43 601 21.5 601L0 601Z" fill="#b70070"></path></svg>