<svg id="visual" viewBox="0 0 900 600" width="900" height="600" xmlns="http://www.w3.org/2000/svg" xmlns:xlink="http://www.w3.org/1999/xlink" version="1.1"><path d="M0 427L21.5 427C43 427 86 427 128.8 423.5C171.7 420 214.3 413 257.2 411C300 409 343 412 385.8 416.8C428.7 421.7 471.3 428.3 514.2 426.3C557 424.3 600 413.7 642.8 403C685.7 392.3 728.3 381.7 771.2 384C814 386.3 857 401.7 878.5 409.3L900 417L900 601L878.5 601C857 601 814 601 771.2 601C728.3 601 685.7 601 642.8 601C600 601 557 601 514.2 601C471.3 601 428.7 601 385.8 601C343 601 300 601 257.2 601C214.3 601 171.7 601 128.8 601C86 601 43 601 21.5 601L0 601Z" fill="#61083f"></path><path d="M0 460L21.5 460C43 460 86 460 128.8 449.2C171.7 438.3 214.3 416.7 257.2 414.7C300 412.7 343 430.3 385.8 441.5C428.7 452.7 471.3 457.3 514.2 461.5C557 465.7 600 469.3 642.8 469.7C685.7 470 728.3 467 771.2 456.8C814 446.7 857 429.3 878.5 420.7L900 412L900 601L878.5 601C857 601 814 601 771.2 601C728.3 601 685.7 601 642.8 601C600 601 557 601 514.2 601C471.3 601 428.7 601 385.8 601C343 601 300 601 257.2 601C214.3 601 171.7 601 128.8 601C86 601 43 601 21.5 601L0 601Z" fill="#76084b"></path><path d="M0 439L21.5 448.5C43 458 86 477 128.8 482.3C171.7 487.7 214.3 479.3 257.2 480.8C300 482.3 343 493.7 385.8 491.7C428.7 489.7 471.3 474.3 514.2 475C557 475.7 600 492.3 642.8 496.2C685.7 500 728.3 491 771.2 481C814 471 857 460 878.5 454.5L900 449L900 601L878.5 601C857 601 814 601 771.2 601C728.3 601 685.7 601 642.8 601C600 601 557 601 514.2 601C471.3 601 428.7 601 385.8 601C343 601 300 601 257.2 601C214.3 601 171.7 601 128.8 601C86 601 43 601 21.5 601L0 601Z" fill="#8b0758"></path><path d="M0 505L21.5 506.2C43 507.3 86 509.7 128.8 514.8C171.7 520 214.3 528 257.2 530.8C300 533.7 343 531.3 385.8 522.2C428.7 513 471.3 497 514.2 494.3C557 491.7 600 502.3 642.8 510.7C685.7 519 728.3 525 771.2 521C814 517 857 503 878.5 496L900 489L900 601L878.5 601C857 601 814 601 771.2 601C728.3 601 685.7 601 642.8 601C600 601 557 601 514.2 601C471.3 601 428.7 601 385.8 601C343 601 300 601 257.2 601C214.3 601 171.7 601 128.8 601C86 601 43 601 21.5 601L0 601Z" fill="#a10464"></path><path d="M0 527L21.5 528C43 529 86 531 128.8 531.2C171.7 531.3 214.3 529.7 257.2 531.7C300 533.7 343 539.3 385.8 541.2C428.7 543 471.3 541 514.2 539.7C557 538.3 600 537.7 642.8 541.8C685.7 546 728.3 555 771.2 555C814 555 857 546 878.5 541.5L900 537L900 601L878.5 601C857 601 814 601 771.2 601C728.3 601 685.7 601 642.8 601C600 601 557 601 514.2 601C471.3 601 428.7 601 385.8 601C343 601 300 601 257.2 601C214.3 601 171.7 601 128.8 601C86 601 43 601 21.5 601L0 601Z" fill="#b70070"></path></svg>